<svg width="40" height="24" viewBox="0 0 40 24" fill="none" xmlns="http://www.w3.org/2000/svg">
<path d="M11.2705 8.69525C11.2705 9.19346 11.337 9.59203 11.4035 9.89096C11.5032 10.1899 11.6361 10.4888 11.8356 10.8542C11.902 10.9538 11.9353 11.0535 11.9353 11.1531C11.9353 11.286 11.8688 11.4188 11.6694 11.5517L10.8385 12.1163C10.7055 12.1827 10.6058 12.2492 10.5061 12.2492C10.3732 12.2492 10.2402 12.1827 10.1073 12.0499C9.90786 11.8506 9.77492 11.6513 9.64197 11.4188C9.50903 11.1863 9.37608 10.9538 9.24314 10.6217C8.21282 11.8506 6.9166 12.4484 5.32127 12.4484C4.19124 12.4484 3.32709 12.1163 2.66237 11.4852C1.99765 10.8542 1.66528 9.9906 1.66528 8.92775C1.66528 7.79847 2.06412 6.86847 2.86179 6.20419C3.65946 5.5399 4.75625 5.17455 6.11894 5.17455C6.58424 5.17455 7.04955 5.20776 7.51486 5.27419C8.0134 5.34062 8.51194 5.44026 9.04372 5.57312V4.60991C9.04372 3.61348 8.8443 2.88277 8.41223 2.4842C7.98016 2.08563 7.2822 1.88635 6.25188 1.88635C5.78657 1.88635 5.32127 1.95278 4.82272 2.05242C4.32418 2.18528 3.85887 2.31813 3.39357 2.51742C3.19415 2.58385 3.02797 2.65027 2.92826 2.68349C2.82855 2.68349 2.76208 2.7167 2.72884 2.7167C2.52942 2.7167 2.46295 2.58385 2.46295 2.31813V1.65385C2.46295 1.45456 2.49619 1.28849 2.56266 1.18885C2.62913 1.08921 2.76208 0.989566 2.92826 0.923138C3.39357 0.690639 3.95858 0.491354 4.59007 0.325283C5.25479 0.159213 5.91952 0.0595703 6.65071 0.0595703C8.24605 0.0595703 9.37608 0.424926 10.1405 1.12242C10.8717 1.85313 11.2373 2.91599 11.2373 4.41062L11.2705 8.69525ZM5.88628 10.7213C6.31835 10.7213 6.78366 10.6549 7.24897 10.4888C7.71427 10.3227 8.14634 10.0238 8.51194 9.62524C8.71136 9.35953 8.87754 9.09382 8.97725 8.76168C9.04372 8.42953 9.11019 8.06418 9.11019 7.59918V7.03454C8.71136 6.9349 8.31253 6.86847 7.88045 6.80204C7.44838 6.73561 7.04955 6.73561 6.61748 6.73561C5.7201 6.73561 5.08861 6.90168 4.62331 7.26704C4.19123 7.63239 3.95858 8.13061 3.95858 8.79489C3.95858 9.42596 4.12476 9.89096 4.45712 10.1899C4.78949 10.5885 5.25479 10.7213 5.88628 10.7213ZM16.5551 12.1827C16.3225 12.1827 16.1563 12.1495 16.0566 12.0499C15.9569 11.9834 15.8571 11.7842 15.7907 11.5184L12.6665 1.22207C12.6 0.956352 12.5335 0.790281 12.5335 0.690639C12.5335 0.491354 12.6332 0.358498 12.8659 0.358498H14.1621C14.428 0.358498 14.5942 0.391712 14.6939 0.491354C14.7936 0.557782 14.8933 0.757067 14.9598 1.02278L17.1866 9.82453L19.2472 1.02278C19.3137 0.757067 19.3802 0.590997 19.5131 0.491354C19.6128 0.424926 19.8123 0.358498 20.0449 0.358498H21.1085C21.3744 0.358498 21.5405 0.391712 21.6402 0.491354C21.74 0.557782 21.8397 0.757067 21.9061 1.02278L24 9.92417L26.2933 1.02278C26.3598 0.757067 26.4595 0.590997 26.5592 0.491354C26.6589 0.424926 26.8251 0.358498 27.091 0.358498H28.3207C28.5201 0.358498 28.6531 0.45814 28.6531 0.690639C28.6531 0.757067 28.6531 0.823496 28.6198 0.889924C28.6198 0.956352 28.5866 1.08921 28.5201 1.22207L25.2962 11.5184C25.2298 11.7842 25.13 11.9502 25.0303 12.0499C24.9306 12.1163 24.7645 12.1827 24.5318 12.1827H23.4018C23.1359 12.1827 22.9697 12.1495 22.87 12.0499C22.7703 11.9502 22.6706 11.7842 22.6041 11.5184L20.5434 2.9492L18.4828 11.5184C18.4163 11.7842 18.3499 11.9502 18.2169 12.0499C18.1172 12.1495 17.9178 12.1827 17.6851 12.1827H16.5551ZM33.6718 12.5149C32.9738 12.5149 32.2758 12.4484 31.6111 12.2824C30.9464 12.1163 30.4146 11.9502 30.0822 11.7509C29.8828 11.6181 29.7166 11.4852 29.6834 11.3856C29.6502 11.286 29.5837 11.1199 29.5837 11.0202V10.356C29.5837 10.0902 29.6834 9.95739 29.8828 9.95739C29.9493 9.95739 30.049 9.95739 30.1155 9.9906C30.1819 10.0238 30.3149 10.057 30.4478 10.1235C30.9131 10.3227 31.3785 10.4888 31.9102 10.5885C32.442 10.6881 32.9738 10.7545 33.5056 10.7545C34.3365 10.7545 35.0012 10.6217 35.4333 10.3227C35.8986 10.0238 36.1312 9.59203 36.1312 9.0606C36.1312 8.69525 35.9983 8.39632 35.7656 8.13061C35.533 7.86489 35.0677 7.66561 34.4362 7.43311L32.5085 6.83526C31.5446 6.53633 30.8134 6.07133 30.3814 5.47348C29.9493 4.87562 29.7166 4.24455 29.7166 3.54706C29.7166 2.98241 29.8496 2.4842 30.0822 2.08563C30.3149 1.68706 30.6473 1.28849 31.0461 0.989566C31.4449 0.690639 31.9102 0.45814 32.442 0.292069C32.9738 0.125999 33.5388 0.0595703 34.1038 0.0595703C34.4029 0.0595703 34.7021 0.0595703 35.0012 0.125999C35.3003 0.159213 35.5995 0.225641 35.8653 0.258855C36.1312 0.325283 36.3971 0.391712 36.6298 0.45814C36.8624 0.524568 37.0618 0.624211 37.1948 0.690639C37.3942 0.790281 37.5272 0.889924 37.5936 1.02278C37.6601 1.12242 37.7266 1.28849 37.7266 1.45456V2.08563C37.7266 2.35135 37.6269 2.51742 37.4274 2.51742C37.3277 2.51742 37.1616 2.45099 36.9289 2.35135C36.1645 2.0192 35.3336 1.81992 34.3697 1.81992C33.6053 1.81992 33.007 1.95278 32.6082 2.18528C32.2094 2.41777 31.9767 2.81634 31.9767 3.38098C31.9767 3.74634 32.1097 4.07848 32.3755 4.31098C32.6414 4.57669 33.14 4.80919 33.8379 5.04169L35.7324 5.63955C36.6962 5.93847 37.3942 6.37026 37.793 6.90168C38.1919 7.43311 38.3913 8.06418 38.3913 8.76168C38.3913 9.32632 38.2584 9.85774 38.0589 10.2895C37.8263 10.7545 37.4939 11.1531 37.0951 11.452C36.6962 11.7842 36.1977 12.0167 35.6327 12.1827C34.968 12.4484 34.3365 12.5149 33.6718 12.5149Z" fill="white"/>
<path fill-rule="evenodd" clip-rule="evenodd" d="M36.1977 18.9915C31.8105 22.2133 25.4291 23.9404 19.9784 23.9404C12.3008 23.9404 5.3877 21.1172 0.169616 16.4008C-0.229218 16.0355 0.13638 15.5373 0.634923 15.803C6.28508 19.0912 13.2314 21.0508 20.4437 21.0508C25.2962 21.0508 30.6472 20.0544 35.5662 17.9619C36.2641 17.663 36.8956 18.4601 36.1977 18.9915Z" fill="white"/>
<path fill-rule="evenodd" clip-rule="evenodd" d="M37.9924 16.9322C37.4274 16.2015 34.3032 16.6 32.8741 16.7661C32.442 16.8325 32.3755 16.434 32.7744 16.1683C35.2671 14.4079 39.3884 14.9061 39.8537 15.504C40.319 16.1018 39.7207 20.2204 37.3942 22.18C37.0286 22.4789 36.6962 22.3129 36.8624 21.9143C37.3942 20.5857 38.5575 17.6297 37.9924 16.9322Z" fill="white"/>
<path d="M11.2705 8.69525C11.2705 9.19346 11.337 9.59203 11.4035 9.89096C11.5032 10.1899 11.6361 10.4888 11.8356 10.8542C11.902 10.9538 11.9353 11.0535 11.9353 11.1531C11.9353 11.286 11.8688 11.4188 11.6694 11.5517L10.8385 12.1163C10.7055 12.1827 10.6058 12.2492 10.5061 12.2492C10.3732 12.2492 10.2402 12.1827 10.1073 12.0499C9.90786 11.8506 9.77492 11.6513 9.64197 11.4188C9.50903 11.1863 9.37608 10.9538 9.24314 10.6217C8.21282 11.8506 6.9166 12.4484 5.32127 12.4484C4.19124 12.4484 3.32709 12.1163 2.66237 11.4852C1.99765 10.8542 1.66528 9.9906 1.66528 8.92775C1.66528 7.79847 2.06412 6.86847 2.86179 6.20419C3.65946 5.5399 4.75625 5.17455 6.11894 5.17455C6.58424 5.17455 7.04955 5.20776 7.51486 5.27419C8.0134 5.34062 8.51194 5.44026 9.04372 5.57312V4.60991C9.04372 3.61348 8.8443 2.88277 8.41223 2.4842C7.98016 2.08563 7.2822 1.88635 6.25188 1.88635C5.78657 1.88635 5.32127 1.95278 4.82272 2.05242C4.32418 2.18528 3.85887 2.31813 3.39357 2.51742C3.19415 2.58385 3.02797 2.65027 2.92826 2.68349C2.82855 2.68349 2.76208 2.7167 2.72884 2.7167C2.52942 2.7167 2.46295 2.58385 2.46295 2.31813V1.65385C2.46295 1.45456 2.49619 1.28849 2.56266 1.18885C2.62913 1.08921 2.76208 0.989566 2.92826 0.923138C3.39357 0.690639 3.95858 0.491354 4.59007 0.325283C5.25479 0.159213 5.91952 0.0595703 6.65071 0.0595703C8.24605 0.0595703 9.37608 0.424926 10.1405 1.12242C10.8717 1.85313 11.2373 2.91599 11.2373 4.41062L11.2705 8.69525ZM5.88628 10.7213C6.31835 10.7213 6.78366 10.6549 7.24897 10.4888C7.71427 10.3227 8.14634 10.0238 8.51194 9.62524C8.71136 9.35953 8.87754 9.09382 8.97725 8.76168C9.04372 8.42953 9.11019 8.06418 9.11019 7.59918V7.03454C8.71136 6.9349 8.31253 6.86847 7.88045 6.80204C7.44838 6.73561 7.04955 6.73561 6.61748 6.73561C5.7201 6.73561 5.08861 6.90168 4.62331 7.26704C4.19123 7.63239 3.95858 8.13061 3.95858 8.79489C3.95858 9.42596 4.12476 9.89096 4.45712 10.1899C4.78949 10.5885 5.25479 10.7213 5.88628 10.7213ZM16.5551 12.1827C16.3225 12.1827 16.1563 12.1495 16.0566 12.0499C15.9569 11.9834 15.8571 11.7842 15.7907 11.5184L12.6665 1.22207C12.6 0.956352 12.5335 0.790281 12.5335 0.690639C12.5335 0.491354 12.6332 0.358498 12.8659 0.358498H14.1621C14.428 0.358498 14.5942 0.391712 14.6939 0.491354C14.7936 0.557782 14.8933 0.757067 14.9598 1.02278L17.1866 9.82453L19.2472 1.02278C19.3137 0.757067 19.3802 0.590997 19.5131 0.491354C19.6128 0.424926 19.8123 0.358498 20.0449 0.358498H21.1085C21.3744 0.358498 21.5405 0.391712 21.6402 0.491354C21.74 0.557782 21.8397 0.757067 21.9061 1.02278L24 9.92417L26.2933 1.02278C26.3598 0.757067 26.4595 0.590997 26.5592 0.491354C26.6589 0.424926 26.8251 0.358498 27.091 0.358498H28.3207C28.5201 0.358498 28.6531 0.45814 28.6531 0.690639C28.6531 0.757067 28.6531 0.823496 28.6198 0.889924C28.6198 0.956352 28.5866 1.08921 28.5201 1.22207L25.2962 11.5184C25.2298 11.7842 25.13 11.9502 25.0303 12.0499C24.9306 12.1163 24.7645 12.1827 24.5318 12.1827H23.4018C23.1359 12.1827 22.9697 12.1495 22.87 12.0499C22.7703 11.9502 22.6706 11.7842 22.6041 11.5184L20.5434 2.9492L18.4828 11.5184C18.4163 11.7842 18.3499 11.9502 18.2169 12.0499C18.1172 12.1495 17.9178 12.1827 17.6851 12.1827H16.5551ZM33.6718 12.5149C32.9738 12.5149 32.2758 12.4484 31.6111 12.2824C30.9464 12.1163 30.4146 11.9502 30.0822 11.7509C29.8828 11.6181 29.7166 11.4852 29.6834 11.3856C29.6502 11.286 29.5837 11.1199 29.5837 11.0202V10.356C29.5837 10.0902 29.6834 9.95739 29.8828 9.95739C29.9493 9.95739 30.049 9.95739 30.1155 9.9906C30.1819 10.0238 30.3149 10.057 30.4478 10.1235C30.9131 10.3227 31.3785 10.4888 31.9102 10.5885C32.442 10.6881 32.9738 10.7545 33.5056 10.7545C34.3365 10.7545 35.0012 10.6217 35.4333 10.3227C35.8986 10.0238 36.1312 9.59203 36.1312 9.0606C36.1312 8.69525 35.9983 8.39632 35.7656 8.13061C35.533 7.86489 35.0677 7.66561 34.4362 7.43311L32.5085 6.83526C31.5446 6.53633 30.8134 6.07133 30.3814 5.47348C29.9493 4.87562 29.7166 4.24455 29.7166 3.54706C29.7166 2.98241 29.8496 2.4842 30.0822 2.08563C30.3149 1.68706 30.6473 1.28849 31.0461 0.989566C31.4449 0.690639 31.9102 0.45814 32.442 0.292069C32.9738 0.125999 33.5388 0.0595703 34.1038 0.0595703C34.4029 0.0595703 34.7021 0.0595703 35.0012 0.125999C35.3003 0.159213 35.5995 0.225641 35.8653 0.258855C36.1312 0.325283 36.3971 0.391712 36.6298 0.45814C36.8624 0.524568 37.0618 0.624211 37.1948 0.690639C37.3942 0.790281 37.5272 0.889924 37.5936 1.02278C37.6601 1.12242 37.7266 1.28849 37.7266 1.45456V2.08563C37.7266 2.35135 37.6269 2.51742 37.4274 2.51742C37.3277 2.51742 37.1616 2.45099 36.9289 2.35135C36.1645 2.0192 35.3336 1.81992 34.3697 1.81992C33.6053 1.81992 33.007 1.95278 32.6082 2.18528C32.2094 2.41777 31.9767 2.81634 31.9767 3.38098C31.9767 3.74634 32.1097 4.07848 32.3755 4.31098C32.6414 4.57669 33.14 4.80919 33.8379 5.04169L35.7324 5.63955C36.6962 5.93847 37.3942 6.37026 37.793 6.90168C38.1919 7.43311 38.3913 8.06418 38.3913 8.76168C38.3913 9.32632 38.2584 9.85774 38.0589 10.2895C37.8263 10.7545 37.4939 11.1531 37.0951 11.452C36.6962 11.7842 36.1977 12.0167 35.6327 12.1827C34.968 12.4484 34.3365 12.5149 33.6718 12.5149Z" fill="white"/>
<path fill-rule="evenodd" clip-rule="evenodd" d="M36.1977 18.9915C31.8105 22.2133 25.4291 23.9404 19.9784 23.9404C12.3008 23.9404 5.3877 21.1172 0.169616 16.4008C-0.229218 16.0355 0.13638 15.5373 0.634923 15.803C6.28508 19.0912 13.2314 21.0508 20.4437 21.0508C25.2962 21.0508 30.6472 20.0544 35.5662 17.9619C36.2641 17.663 36.8956 18.4601 36.1977 18.9915Z" fill="white"/>
<path fill-rule="evenodd" clip-rule="evenodd" d="M37.9924 16.9322C37.4274 16.2015 34.3032 16.6 32.8741 16.7661C32.442 16.8325 32.3755 16.434 32.7744 16.1683C35.2671 14.4079 39.3884 14.9061 39.8537 15.504C40.319 16.1018 39.7207 20.2204 37.3942 22.18C37.0286 22.4789 36.6962 22.3129 36.8624 21.9143C37.3942 20.5857 38.5575 17.6297 37.9924 16.9322Z" fill="white"/>
</svg>
