<svg width="40" height="40" viewBox="0 0 40 40" fill="none" xmlns="http://www.w3.org/2000/svg">
<mask id="mask0_237_1984" style="mask-type:luminance" maskUnits="userSpaceOnUse" x="0" y="0" width="40" height="40">
<path d="M11.7169 0.138497C9.58889 0.238937 8.13543 0.579793 6.86534 1.07747C5.55055 1.59003 4.43601 2.27694 3.32728 3.39021C2.21724 4.50414 1.53555 5.62065 1.02688 6.93677C0.534395 8.2101 0.200666 9.66425 0.106694 11.7936C0.0133944 13.9269 -0.00800156 14.6073 0.00239844 20.0382C0.0127584 25.4686 0.0367264 26.1502 0.138454 28.2841C0.240178 30.4116 0.579762 31.8644 1.07743 33.1352C1.59064 34.45 2.27685 35.5639 3.39076 36.6733C4.50403 37.7827 5.62119 38.4637 6.93791 38.9731C8.20995 39.4649 9.66471 39.7999 11.7934 39.8932C13.9266 39.9872 14.6077 40.0079 20.0373 39.9976C25.4695 39.9872 26.1505 39.9632 28.2837 39.8621C30.4118 39.7604 31.8639 39.4196 33.1353 38.9232C34.4501 38.4087 35.5647 37.7237 36.6734 36.6098C37.7821 35.4965 38.4638 34.3793 38.9725 33.0626C39.465 31.7905 39.8 30.3358 39.8927 28.2083C39.986 26.0738 40.008 25.3921 39.9976 19.9618C39.9873 14.5308 39.9627 13.8504 39.8616 11.7178C39.7605 9.58843 39.4196 8.13624 38.9226 6.86484C38.4088 5.55004 37.7232 4.43674 36.6099 3.32671C35.4966 2.21797 34.3795 1.53496 33.0628 1.02757C31.7901 0.535081 30.336 0.199405 28.2073 0.107389C26.074 0.012781 25.393 -0.00794296 19.9615 0.00242103C14.5312 0.012785 13.8502 0.036121 11.7169 0.138497ZM11.9502 36.2936C10.0004 36.2087 8.94156 35.8847 8.23589 35.6131C7.30147 35.2515 6.63468 34.818 5.93289 34.1214C5.2324 33.4222 4.79758 32.7574 4.43276 31.8249C4.15863 31.1192 3.82882 30.0616 3.73746 28.1118C3.63831 26.0038 3.61564 25.3713 3.60591 20.0311C3.59555 14.6922 3.61497 14.0597 3.707 11.9498C3.79057 10.0012 4.11655 8.94106 4.38739 8.23602C4.74897 7.30029 5.18118 6.63479 5.87909 5.93301C6.57827 5.23121 7.24312 4.79768 8.17625 4.43286C8.88128 4.15744 9.93883 3.8302 11.888 3.73755C13.9973 3.63774 14.629 3.61636 19.9679 3.606C25.3081 3.59562 25.9405 3.61442 28.0505 3.70709C29.999 3.79197 31.0591 4.11469 31.7635 4.3875C32.6986 4.74908 33.3653 5.18001 34.0665 5.87922C34.7676 6.57842 35.2024 7.24198 35.5673 8.17705C35.8427 8.88014 36.1699 9.93899 36.2619 11.8876C36.3624 13.9968 36.3851 14.6293 36.3947 19.9682C36.4051 25.3085 36.3857 25.9409 36.293 28.0496C36.2081 29.9994 35.8848 31.0589 35.6126 31.7652C35.2511 32.699 34.8188 33.3658 34.1203 34.0676C33.4217 34.7668 32.7569 35.2029 31.8231 35.5678C31.1194 35.8425 30.0606 36.1704 28.1126 36.2631C26.0034 36.3622 25.3716 36.3849 20.0308 36.3946C14.6919 36.405 14.0601 36.3849 11.9502 36.2936ZM28.2546 9.30914C28.2572 10.6337 29.3341 11.7061 30.6587 11.7035C31.9838 11.7009 33.0563 10.6246 33.0543 9.30006C33.0517 7.97552 31.9747 6.90244 30.6496 6.90503C29.3244 6.90762 28.252 7.9846 28.2546 9.30914ZM9.73084 20.0194C9.74183 25.6915 14.3485 30.2794 20.0191 30.2684C25.6904 30.2573 30.2809 25.6519 30.2699 19.9799C30.2588 14.3098 25.6516 9.71932 19.9796 9.73034C14.3089 9.74135 9.7198 14.3487 9.73084 20.0194ZM13.333 20.0123C13.3266 16.331 16.3061 13.3404 19.9867 13.3339C23.668 13.3268 26.6592 16.305 26.6663 19.987C26.6735 23.669 23.694 26.6589 20.012 26.6661C16.3314 26.6732 13.3402 23.6943 13.333 20.0123Z" fill="white"/>
</mask>
<g mask="url(#mask0_237_1984)">
<mask id="mask1_237_1984" style="mask-type:luminance" maskUnits="userSpaceOnUse" x="-2" y="-2" width="44" height="44">
<path d="M41.5838 -1.56641H-1.61621V41.6342H41.5838V-1.56641Z" fill="white"/>
</mask>
<g mask="url(#mask1_237_1984)">
<mask id="mask2_237_1984" style="mask-type:luminance" maskUnits="userSpaceOnUse" x="-2" y="-2" width="44" height="44">
<path d="M41.7838 -1.7666H-1.81616V41.834H41.7838V-1.7666Z" fill="white"/>
</mask>
<g mask="url(#mask2_237_1984)">
<mask id="mask3_237_1984" style="mask-type:luminance" maskUnits="userSpaceOnUse" x="-2" y="-2" width="44" height="44">
<path d="M41.7838 -1.7666H-1.81616V41.834H41.7838V-1.7666Z" fill="white"/>
</mask>
<g mask="url(#mask3_237_1984)">
<rect x="-1.83032" y="-1.77295" width="43.6224" height="43.6224" fill="url(#paint0_linear_237_1984)"/>
</g>
</g>
</g>
</g>
<defs>
<linearGradient id="paint0_linear_237_1984" x1="19.9809" y1="-1.77295" x2="19.9809" y2="41.8494" gradientUnits="userSpaceOnUse">
<stop stop-color="white"/>
<stop offset="0.942708" stop-color="white" stop-opacity="0.588542"/>
<stop offset="1" stop-color="white" stop-opacity="0"/>
</linearGradient>
</defs>
</svg>
